<?xml version="1.0" encoding="utf-8"?>
<?xml-stylesheet type="text/xsl" href="rss1.xsl"?>
<rss version="2.0" xmlns:atom="http://www.w3.org/2005/Atom" xmlns:content="http://purl.org/rss/1.0/modules/content/" xmlns:dc="http://purl.org/dc/elements/1.1/" xmlns:media="http://search.yahoo.com/mrss/">
<channel>
 <title>Getty</title>
 <link>http://www.gettyimg.com/</link>
 <atom:link href="http://www.gettyimg.com/" rel="self" type="application/rss+xml" />

 
                <item>
                <title><![CDATA[【Apple Music】WEB-RiP - Sabrina Carpenter - Espresso [Apple HD Music Video]]]></title>
                <link><![CDATA[https://sharemania.us/threads/sabrina-carpenter-espresso-apple-hd-music-video.242295/]]></link>
                <description><![CDATA[<article>
<blockquote class="messageText SelectQuoteContainer ugc baseHtml">
<span style="font-size: 22px"><b>Sabrina Carpenter - Espresso [Apple HD Music Video]</b></span><br>
<br>
<img src="https://imgur.com/cMdo2SI.jpg" class="bbCodeImage LbImage" alt="[​IMG]" data-url="https://imgur.com/cMdo2SI.jpg" style=""><br>
<br>
<div class="bbCodeBlock bbCodeCode">
<div class="type">Code:</div>
<pre>General
Format                         : MPEG-4
Codec ID                       : M4V  (isom/iso4/M4V /mp42)
File size                      : 164 MiB
Duration                       : 3 min 20 s
Overall bit rate mode          : Variable
Overall bit rate               : 6 832 kb/s
Movie name                     : Espresso
Performer                      : Sabrina Carpenter
Genre                          : Pop
ContentType                    : Music Video
Recorded date                  : UTC 2024-04-12 07:00:00
Encoded date                   : UTC 2024-04-12 17:53:18
Tagged date                    : UTC 2024-04-12 17:53:18
Copyright                      : ℗ 2024 Island Records, a division of UMG Recordings, Inc.
Cover                          : Yes
Rating                         : Explicit
GenreID                        : 1614
AppleStoreCountry              : United Kingdom
AlbumTitleID                   : 390647681
AppleStoreCatalogID            : 1740640007

Video
ID                             : 2
Format                         : AVC
Format/Info                    : Advanced Video Codec
Format profile                 : High@L4
Format settings                : CABAC / 4 Ref Frames
Format settings, CABAC         : Yes
Format settings, Reference fra : 4 frames
Codec ID                       : avc1
Codec ID/Info                  : Advanced Video Coding
Duration                       : 3 min 20 s
Bit rate                       : 6 559 kb/s
Maximum bit rate               : 15.7 Mb/s
Width                          : 1 920 pixels
Height                         : 960 pixels
Display aspect ratio           : 2.000
Frame rate mode                : Constant
Frame rate                     : 23.976 (24000/1001) FPS
Color space                    : YUV
Chroma subsampling             : 4:2:0
Bit depth                      : 8 bits
Scan type                      : Progressive
Bits/(Pixel*Frame)             : 0.148
Stream size                    : 157 MiB (96%)
Title                          : Core Media Video
Language                       : English
Encoded date                   : UTC 2024-04-11 03:14:18
Tagged date                    : UTC 2024-04-12 17:53:22
Color range                    : Limited
Color primaries                : BT.709
Transfer characteristics       : BT.709
Matrix coefficients            : BT.709
Codec configuration box        : avcC

Audio
ID                             : 1
Format                         : AAC LC
Format/Info                    : Advanced Audio Codec Low Complexity
Codec ID                       : mp4a-40-2
Duration                       : 3 min 20 s
Duration_LastFrame             : -11 ms
Bit rate mode                  : Variable
Bit rate                       : 265 kb/s
Maximum bit rate               : 443 kb/s
Channel(s)                     : 2 channels
Channel layout                 : L R
Sampling rate                  : 48.0 kHz
Frame rate                     : 46.875 FPS (1024 SPF)
Compression mode               : Lossy
Stream size                    : 6.36 MiB (4%)
Title                          : Core Media Audio
Encoded date                   : UTC 2024-04-11 03:13:54
Tagged date                    : UTC 2024-04-12 17:53:22

Text
ID                             : 3
Format                         : EIA-608
Codec ID                       : c608
Duration                       : 3 min 20 s
Bit rate mode                  : Variable
Bit rate                       : 203 b/s
Maximum bit rate               : 1 008 b/s
Frame rate                     : 0.533 FPS
Stream size                    : 4.99 KiB (0%)
Title                          : Core Media Closed Caption
Language                       : English
Forced                         : No
Encoded date                   : UTC 2024-04-11 03:14:18
Tagged date                    : UTC 2024-04-12 17:53:22
</pre>
</div>
<div class="bbCodeBlock bbCodeVfcHH HiddenContent">
<div class="attribution type">Hidden Content:</div>
<blockquote>You must reply before you can see the hidden data contained here.</blockquote>
</div>
<div class="messageTextEndMarker">&nbsp;</div>
</blockquote>
</article>]]></description>
                <author><![CDATA[abby0511]]></author>
                </item>

                
                <item>
                <title><![CDATA[【HD Live Performances】WEB-DL - Blur - Live at Coachella Festival Weekend 1 (2024) 1080p VP9]]></title>
                <link><![CDATA[https://sharemania.us/threads/blur-live-at-coachella-festival-weekend-1-2024-1080p-vp9.242294/]]></link>
                <description><![CDATA[<article>
<blockquote class="messageText SelectQuoteContainer ugc baseHtml">
Blur<br>
Coachella Festival<br>
Empire Polo Grounds<br>
Indio, CA, USA<br>
April 13, 2014<br>
<br>
Setlist<br>
Theme from Retro<br>
St. Charles Square<br>
Popscene<br>
Trouble in the Message Centre<br>
Beetlebum<br>
Goodbye Albert<br>
Trimm Trabb<br>
Out of Time<br>
Bird Song ([traditional] cover) (with the Torres Martinez Cahuilla Bird Singers)<br>
Death of a Party (with the Torres Martinez Cahuilla Bird Singers)<br>
Girls &amp; Boys<br>
Song 2<br>
The Narcissist<br>
Tender (with the Torres Martinez Cahuilla Bird Singers)<br>
Le Temps de l'amour (Françoise Hardy song)<br>
<br>
Captured by me<br>
<img src="https://i.imgur.com/a5EBlWa.jpeg" class="bbCodeImage LbImage" alt="[​IMG]" data-url="https://i.imgur.com/a5EBlWa.jpeg" style=""><br>
<img src="https://i.imgur.com/4XJviFL.jpeg" class="bbCodeImage LbImage" alt="[​IMG]" data-url="https://i.imgur.com/4XJviFL.jpeg" style=""><br>
<img src="https://i.imgur.com/rlUN04j.jpeg" class="bbCodeImage LbImage" alt="[​IMG]" data-url="https://i.imgur.com/rlUN04j.jpeg" style=""><br>
<img src="https://i.imgur.com/vPqde3r.jpeg" class="bbCodeImage LbImage" alt="[​IMG]" data-url="https://i.imgur.com/vPqde3r.jpeg" style=""><br>
<br>
<br>
<div class="ToggleTriggerAnchor bbCodeSpoilerContainer">
<button type="button" class="button bbCodeSpoilerButton ToggleTrigger Tooltip JsOnly" data-target="> .SpoilerTarget"><span>Spoiler: <span class="SpoilerTitle">Mediainfo</span></span></button>
<div class="SpoilerTarget bbCodeSpoilerText">General<br>
Unique ID : 284106330797998678217672930324771600467 (0xD5BCE394AD61A8976FF4CEBF941D7853)<br>
Complete name : Blur - Coachella Festival 2024 Weekend 1.mkv<br>
Format : Matroska<br>
Format version : Version 4<br>
File size : 908 MiB<br>
Duration : 1 h 2 min<br>
Overall bit rate : 2 029 kb/s<br>
Frame rate : 30.000 FPS<br>
Encoded date : 2024-04-15 06:48:28 UTC<br>
<br>
Video<br>
ID : 1<br>
Format : VP9<br>
Format profile : 0<br>
Codec ID : V_VP9<br>
Duration : 1 h 2 min<br>
Bit rate : 1 898 kb/s<br>
Width : 1 920 pixels<br>
Height : 1 080 pixels<br>
Display aspect ratio : 16:9<br>
Frame rate mode : Constant<br>
Frame rate : 30.000 FPS<br>
Color space : YUV<br>
Chroma subsampling : 4:2:0 (Type 1)<br>
Bit depth : 8 bits<br>
Bits/(Pixel*Frame) : 0.031<br>
Stream size : 850 MiB (94%)<br>
Language : English<br>
Default : Yes<br>
Forced : No<br>
Color range : Limited<br>
Color primaries : BT.709<br>
Transfer characteristics : BT.709<br>
Matrix coefficients : BT.709<br>
<br>
Audio<br>
ID : 2<br>
Format : AAC LC<br>
Format/Info : Advanced Audio Codec Low Complexity<br>
Codec ID : A_AAC-2<br>
Duration : 1 h 2 min<br>
Bit rate : 128 kb/s<br>
Channel(s) : 2 channels<br>
Channel layout : L R<br>
Sampling rate : 44.1 kHz<br>
Frame rate : 43.066 FPS (1024 SPF)<br>
Compression mode : Lossy<br>
Delay relative to video : 8 ms<br>
Stream size : 57.3 MiB (6%)<br>
Title : ISO Media file produced by Google Inc.<br>
Default : Yes<br>
Forced : No<br>
VENDOR_ID : [0][0][0][0]</div>
</div><br>
<div class="bbCodeBlock bbCodeVfcHH HiddenContent">
<div class="attribution type">Hidden Content:</div>
<blockquote>You must reply before you can see the hidden data contained here.</blockquote>
</div>
<div class="messageTextEndMarker">&nbsp;</div>
</blockquote>
</article>]]></description>
                <author><![CDATA[Nero]]></author>
                </item>

                </channel></rss>